<svg width="100" height="100" viewBox="0 0 100 100" fill="none" xmlns="http://www.w3.org/2000/svg">
<circle cx="50" cy="50" r="50" fill="black"/>
<path fill-rule="evenodd" clip-rule="evenodd" d="M28.8378 19.6454C34.8346 15.4569 42.1304 13 50 13C57.8696 13 65.1654 15.4569 71.1622 19.6454L80.4609 10.3467C72.0268 3.8581 61.4639 0 50 0C38.5361 0 27.9732 3.8581 19.5391 10.3467L28.8378 19.6454ZM19.6454 28.8378L10.3467 19.5391C3.8581 27.9732 0 38.5361 0 50C0 61.4639 3.8581 72.0268 10.3467 80.4609L19.6454 71.1622C15.4569 65.1654 13 57.8696 13 50C13 42.1304 15.4569 34.8346 19.6454 28.8378ZM28.8378 80.3546L19.5391 89.6533C27.9732 96.1419 38.5361 100 50 100C61.4639 100 72.0268 96.1419 80.4609 89.6533L71.1622 80.3546C65.1654 84.5431 57.8696 87 50 87C42.1304 87 34.8346 84.5431 28.8378 80.3546ZM80.3546 71.1622L89.6533 80.4609C96.1419 72.0268 100 61.4639 100 50C100 38.5361 96.1419 27.9732 89.6533 19.5391L80.3546 28.8378C84.5431 34.8346 87 42.1304 87 50C87 57.8696 84.5431 65.1654 80.3546 71.1622Z" fill="#449AE3"/>
<path d="M10.0488 19.2405L45.4044 54.5962L54.5968 45.4038L19.2412 10.0482L10.0488 19.2405ZM45.4044 54.5962L80.7595 89.9512L89.9518 80.7588L54.5968 45.4038L45.4044 54.5962ZM80.7594 10.0488L45.4044 45.4038L54.5968 54.5962L89.9518 19.2412L80.7594 10.0488ZM45.4044 45.4038L10.0488 80.7595L19.2412 89.9519L54.5968 54.5962L45.4044 45.4038Z" fill="#F46B36"/>
</svg>
